<?xml version="1.0" encoding="UTF-8" standalone="no"?>
<svg
   version="1.2"
   width="210mm"
   height="297mm"
   viewBox="0 0 21000 29700"
   preserveAspectRatio="xMidYMid"
   fill-rule="evenodd"
   stroke-width="28.222"
   stroke-linejoin="round"
   xml:space="preserve"
   id="svg130"
   sodipodi:docname="logopuro.svg"
   inkscape:version="1.1.1 (eb90963e84, 2021-10-02)"
   xmlns:inkscape="http://www.inkscape.org/namespaces/inkscape"
   xmlns:sodipodi="http://sodipodi.sourceforge.net/DTD/sodipodi-0.dtd"
   xmlns="http://www.w3.org/2000/svg"
   xmlns:svg="http://www.w3.org/2000/svg"
   xmlns:ooo="http://xml.openoffice.org/svg/export"><sodipodi:namedview
   id="namedview132"
   pagecolor="#ffffff"
   bordercolor="#666666"
   borderopacity="1.0"
   inkscape:pageshadow="2"
   inkscape:pageopacity="0.0"
   inkscape:pagecheckerboard="0"
   inkscape:document-units="mm"
   showgrid="false"
   inkscape:zoom="0.58885382"
   inkscape:cx="5.094643"
   inkscape:cy="562.10895"
   inkscape:window-width="1600"
   inkscape:window-height="836"
   inkscape:window-x="0"
   inkscape:window-y="27"
   inkscape:window-maximized="1"
   inkscape:current-layer="svg130" />
 <defs
   class="ClipPathGroup"
   id="defs8">
  <clipPath
   id="presentation_clip_path"
   clipPathUnits="userSpaceOnUse">
   <rect
   x="0"
   y="0"
   width="21000"
   height="29700"
   id="rect2" />
  </clipPath>
  <clipPath
   id="presentation_clip_path_shrink"
   clipPathUnits="userSpaceOnUse">
   <rect
   x="21"
   y="29"
   width="20958"
   height="29641"
   id="rect5" />
  </clipPath>
 </defs>
 <defs
   class="TextShapeIndex"
   id="defs12">
  <g
   ooo:slide="id1"
   ooo:id-list="id3 id4 id5 id6 id7"
   id="g10" />
 </defs>
 <defs
   class="EmbeddedBulletChars"
   id="defs44">
  <g
   id="bullet-char-template-57356"
   transform="scale(0.00048828125,-0.00048828125)">
   <path
   d="M 580,1141 L 1163,571 580,0 -4,571 580,1141 Z"
   id="path14" />
  </g>
  <g
   id="bullet-char-template-57354"
   transform="scale(0.00048828125,-0.00048828125)">
   <path
   d="M 8,1128 L 1137,1128 1137,0 8,0 8,1128 Z"
   id="path17" />
  </g>
  <g
   id="bullet-char-template-10146"
   transform="scale(0.00048828125,-0.00048828125)">
   <path
   d="M 174,0 L 602,739 174,1481 1456,739 174,0 Z M 1358,739 L 309,1346 659,739 1358,739 Z"
   id="path20" />
  </g>
  <g
   id="bullet-char-template-10132"
   transform="scale(0.00048828125,-0.00048828125)">
   <path
   d="M 2015,739 L 1276,0 717,0 1260,543 174,543 174,936 1260,936 717,1481 1274,1481 2015,739 Z"
   id="path23" />
  </g>
  <g
   id="bullet-char-template-10007"
   transform="scale(0.00048828125,-0.00048828125)">
   <path
   d="M 0,-2 C -7,14 -16,27 -25,37 L 356,567 C 262,823 215,952 215,954 215,979 228,992 255,992 264,992 276,990 289,987 310,991 331,999 354,1012 L 381,999 492,748 772,1049 836,1024 860,1049 C 881,1039 901,1025 922,1006 886,937 835,863 770,784 769,783 710,716 594,584 L 774,223 C 774,196 753,168 711,139 L 727,119 C 717,90 699,76 672,76 641,76 570,178 457,381 L 164,-76 C 142,-110 111,-127 72,-127 30,-127 9,-110 8,-76 1,-67 -2,-52 -2,-32 -2,-23 -1,-13 0,-2 Z"
   id="path26" />
  </g>
  <g
   id="bullet-char-template-10004"
   transform="scale(0.00048828125,-0.00048828125)">
   <path
   d="M 285,-33 C 182,-33 111,30 74,156 52,228 41,333 41,471 41,549 55,616 82,672 116,743 169,778 240,778 293,778 328,747 346,684 L 369,508 C 377,444 397,411 428,410 L 1163,1116 C 1174,1127 1196,1133 1229,1133 1271,1133 1292,1118 1292,1087 L 1292,965 C 1292,929 1282,901 1262,881 L 442,47 C 390,-6 338,-33 285,-33 Z"
   id="path29" />
  </g>
  <g
   id="bullet-char-template-9679"
   transform="scale(0.00048828125,-0.00048828125)">
   <path
   d="M 813,0 C 632,0 489,54 383,161 276,268 223,411 223,592 223,773 276,916 383,1023 489,1130 632,1184 813,1184 992,1184 1136,1130 1245,1023 1353,916 1407,772 1407,592 1407,412 1353,268 1245,161 1136,54 992,0 813,0 Z"
   id="path32" />
  </g>
  <g
   id="bullet-char-template-8226"
   transform="scale(0.00048828125,-0.00048828125)">
   <path
   d="M 346,457 C 273,457 209,483 155,535 101,586 74,649 74,723 74,796 101,859 155,911 209,963 273,989 346,989 419,989 480,963 531,910 582,859 608,796 608,723 608,648 583,586 532,535 482,483 420,457 346,457 Z"
   id="path35" />
  </g>
  <g
   id="bullet-char-template-8211"
   transform="scale(0.00048828125,-0.00048828125)">
   <path
   d="M -4,459 L 1135,459 1135,606 -4,606 -4,459 Z"
   id="path38" />
  </g>
  <g
   id="bullet-char-template-61548"
   transform="scale(0.00048828125,-0.00048828125)">
   <path
   d="M 173,740 C 173,903 231,1043 346,1159 462,1274 601,1332 765,1332 928,1332 1067,1274 1183,1159 1299,1043 1357,903 1357,740 1357,577 1299,437 1183,322 1067,206 928,148 765,148 601,148 462,206 346,322 231,437 173,577 173,740 Z"
   id="path41" />
  </g>
 </defs>
 <g
   id="g49">
  <g
   id="id2"
   class="Master_Slide">
   <g
   id="bg-id2"
   class="Background" />
   <g
   id="bo-id2"
   class="BackgroundObjects" />
  </g>
 </g>
 <g
   class="SlideGroup"
   id="g128"
   inkscape:export-filename="/home/luciano/Documents/Desktop/nodejs-mongodb-main/public/g128.png"
   inkscape:export-xdpi="25.389999"
   inkscape:export-ydpi="25.389999">
  <g
   id="g126">
   <g
   id="container-id1">
    <g
   id="id1"
   class="Slide"
   clip-path="url(#presentation_clip_path)">
     <g
   class="Page"
   id="g122">
      <g
   class="com.sun.star.drawing.CustomShape"
   id="g54">
       <g
   id="id3">
        <rect
   class="BoundingBox"
   stroke="none"
   fill="none"
   x="5570"
   y="6413"
   width="5001"
   height="5001"
   id="rect51" />
       </g>
      </g>
      <g
   class="Group"
   id="g120">
       <g
   class="com.sun.star.drawing.ClosedBezierShape"
   id="g70">
        <g
   id="id4">
         <rect
   class="BoundingBox"
   stroke="none"
   fill="none"
   x="7469"
   y="7884"
   width="1892"
   height="1620"
   id="rect56" />
         <g
   id="g67">
          <defs
   id="defs63">
           <linearGradient
   id="gradient1"
   x1="9257"
   y1="7790"
   x2="7571"
   y2="9598"
   gradientUnits="userSpaceOnUse">
            <stop
   offset="0.21"
   style="stop-color:rgb(0,153,195)"
   id="stop58" />
            <stop
   offset="1"
   style="stop-color:rgb(0,96,157)"
   id="stop60" />
           </linearGradient>
          </defs>
          <path
   style="fill:url(#gradient1)"
   d="M 7531,9502 L 7530,9503 7593,9502 7593,9502 7601,9501 7609,9501 7617,9501 7625,9500 7626,9500 7634,9500 7642,9500 7650,9499 7658,9499 7658,9499 7786,9486 7786,9486 7911,9465 7911,9465 7942,9459 7972,9452 8033,9436 8034,9436 8041,9434 8048,9432 8063,9428 8064,9428 8093,9419 8093,9419 8123,9410 8123,9410 8151,9401 8153,9400 8167,9395 8174,9393 8181,9390 8182,9390 8189,9388 8196,9385 8203,9382 8210,9380 8210,9380 8225,9374 8232,9371 8239,9369 8239,9369 8267,9357 8268,9357 8295,9345 8296,9345 8300,9343 8304,9342 8307,9340 8309,9339 8311,9338 8326,9332 8329,9331 8333,9329 8336,9328 8339,9326 8343,9324 8346,9323 8349,9321 8353,9319 8367,9313 8374,9310 8377,9308 8379,9307 8381,9306 8387,9303 8390,9302 8394,9300 8396,9299 8397,9298 8399,9297 8401,9296 8404,9295 8408,9293 8410,9292 8411,9291 8413,9290 8415,9289 8421,9286 8425,9284 8429,9282 8432,9280 8436,9278 8442,9275 8445,9274 8447,9272 8451,9270 8455,9268 8458,9266 8462,9264 8474,9258 8489,9249 8491,9248 8494,9246 8500,9243 8515,9234 8520,9231 8523,9229 8525,9228 8526,9227 8533,9223 8537,9220 8540,9218 8546,9215 8549,9214 8551,9212 8559,9207 8562,9205 8566,9202 8568,9201 8571,9199 8574,9198 8576,9196 8580,9193 8584,9191 8591,9186 8601,9179 8609,9174 8612,9172 8616,9169 8621,9166 8622,9165 8624,9164 8625,9163 8626,9162 8630,9160 8633,9157 8635,9156 8637,9155 8638,9153 8640,9152 8641,9151 8643,9150 8644,9149 8645,9149 8648,9147 8649,9146 8650,9145 8654,9143 8657,9140 8664,9135 8669,9131 8672,9129 8673,9128 8674,9127 8678,9125 8681,9122 8688,9117 8693,9113 8696,9111 8697,9110 8698,9109 8700,9108 8702,9107 8705,9104 8708,9101 8710,9100 8712,9099 8714,9097 8717,9095 8718,9094 8719,9093 8721,9092 8722,9091 8724,9090 8725,9088 8729,9086 8732,9083 8733,9081 8735,9080 8736,9079 8737,9078 8740,9076 8745,9072 8748,9070 8752,9067 8755,9064 8758,9061 8759,9060 8760,9059 8763,9057 8765,9055 8767,9053 8769,9052 8771,9051 8772,9049 8774,9048 8777,9045 8780,9042 8783,9040 8785,9038 8788,9036 8789,9035 8790,9034 8796,9028 8799,9025 8803,9022 8804,9021 8805,9020 8808,9018 8810,9016 8811,9015 8812,9014 8824,9002 8825,9001 8826,9000 8829,8998 8831,8996 8833,8994 8837,8991 8840,8988 8846,8982 8848,8980 8851,8978 8853,8976 8854,8975 8855,8974 8858,8971 8861,8968 8864,8964 8867,8961 8868,8960 8869,8959 8872,8957 8874,8955 8876,8953 8882,8947 8885,8944 8888,8940 8889,8939 8890,8938 8891,8937 8892,8936 8894,8934 8896,8932 8899,8929 8902,8925 8905,8922 8908,8919 8910,8917 8912,8915 8914,8912 8915,8911 8916,8910 8928,8898 8929,8897 8930,8896 8932,8894 8934,8891 8935,8890 8936,8889 8939,8885 8942,8882 8948,8876 8949,8875 8950,8874 8952,8872 8954,8869 8956,8867 8957,8865 8958,8863 8960,8862 8961,8860 8964,8857 8967,8854 8971,8849 8973,8846 8974,8845 8975,8844 8977,8841 8980,8838 8983,8834 8986,8831 8987,8830 8988,8829 8990,8826 8992,8824 8994,8821 8996,8818 8999,8815 9002,8812 9003,8810 9004,8808 9005,8807 9006,8806 9008,8803 9012,8798 9014,8795 9017,8792 9020,8789 9021,8787 9022,8785 9023,8784 9024,8783 9025,8782 9026,8780 9027,8779 9027,8778 9029,8775 9030,8773 9032,8772 9035,8769 9037,8765 9039,8764 9040,8762 9043,8757 9044,8756 9045,8754 9046,8753 9047,8752 9048,8750 9049,8748 9052,8745 9055,8742 9056,8740 9057,8738 9064,8728 9065,8726 9066,8724 9069,8721 9072,8718 9073,8716 9074,8714 9077,8709 9078,8708 9079,8706 9080,8705 9081,8704 9086,8697 9088,8693 9090,8689 9093,8684 9094,8683 9095,8681 9096,8680 9097,8679 9106,8664 9109,8659 9111,8657 9112,8654 9114,8650 9117,8647 9122,8640 9124,8637 9125,8635 9127,8632 9128,8629 9133,8622 9135,8618 9137,8615 9140,8609 9142,8606 9143,8604 9166,8562 9189,8519 9210,8475 9230,8431 9230,8430 9247,8390 9263,8349 9278,8307 9291,8265 9291,8265 9307,8209 9307,8208 9309,8201 9311,8194 9313,8187 9315,8180 9315,8180 9323,8144 9331,8107 9344,8034 9344,8033 9346,8019 9348,8004 9351,7974 9351,7974 9354,7952 9356,7931 9359,7888 9359,7887 9359,7887 9359,7886 9359,7885 9299,7916 9299,7916 9299,7916 9299,7916 9299,7916 9299,7916 9299,7916 9299,7916 9299,7916 9299,7917 9299,7917 9299,7917 9299,7917 9299,7917 9299,7917 9299,7917 9299,7917 9299,7917 9299,7918 9299,7918 9299,7918 9299,7918 9299,7918 9299,7918 9299,7918 9299,7918 9299,7918 9299,7918 9299,7919 9299,7919 9299,7919 9299,7919 9299,7919 9299,7919 9299,7919 9299,7919 9299,7919 9299,7919 9299,7920 9299,7920 9299,7920 9299,7920 9299,7920 9299,7920 9299,7920 9299,7920 9299,7921 9299,7921 9299,7921 9299,7921 9299,7921 9299,7921 9299,7921 9299,7921 9299,7921 9299,7921 9299,7922 9299,7922 9299,7922 9299,7922 9299,7922 9299,7922 9299,7922 9299,7922 9299,7922 9299,7922 9299,7923 9299,7923 9299,7923 9299,7923 9299,7923 9299,7923 9299,7923 9299,7923 9299,7923 9299,7923 9299,7924 9299,7924 9299,7924 9299,7925 9299,7925 9299,7925 9299,7925 9299,7926 9299,7926 9299,7926 9299,7927 9299,7927 9299,7927 9299,7928 9299,7928 9299,7929 9299,7929 9298,7935 9298,7935 9291,8008 9291,8008 9290,8014 9289,8020 9287,8032 9287,8032 9285,8044 9284,8050 9283,8056 9283,8056 9281,8068 9280,8074 9280,8076 9279,8079 9279,8080 9278,8086 9277,8092 9276,8097 9275,8103 9274,8104 9273,8110 9272,8116 9269,8127 9269,8127 9268,8133 9267,8139 9264,8150 9264,8151 9258,8173 9258,8174 9252,8195 9251,8197 9245,8219 9245,8219 9244,8222 9243,8225 9243,8226 9242,8227 9241,8230 9238,8241 9238,8242 9236,8247 9234,8253 9232,8258 9230,8263 9230,8264 9226,8275 9224,8281 9222,8286 9222,8286 9221,8289 9220,8291 9218,8297 9216,8303 9215,8305 9214,8308 9214,8308 9205,8330 9205,8330 9196,8351 9196,8352 9187,8373 9186,8373 9177,8394 9177,8394 9174,8399 9172,8405 9167,8415 9166,8415 9164,8420 9161,8425 9156,8435 9156,8436 9145,8456 9145,8457 9142,8462 9139,8467 9136,8472 9134,8477 9133,8477 9131,8482 9128,8486 9125,8491 9123,8495 9122,8496 9120,8499 9119,8502 9118,8503 9117,8505 9116,8506 9115,8507 9115,8508 9114,8509 9114,8510 9113,8512 9111,8514 9110,8516 9108,8518 9107,8521 9105,8524 9104,8526 9103,8527 9103,8528 9102,8529 9102,8530 9101,8531 9100,8532 9099,8533 9099,8534 9098,8535 9096,8538 9096,8539 9095,8540 9094,8542 9093,8543 9092,8544 9091,8545 9090,8548 9088,8550 9085,8555 9079,8564 9072,8574 9071,8575 9070,8577 9069,8578 9069,8579 9067,8582 9066,8583 9065,8584 9059,8593 9055,8598 9053,8601 9052,8602 9051,8603 9045,8612 9044,8613 9043,8614 9041,8617 9039,8620 9038,8621 9037,8622 9036,8624 9034,8626 9033,8628 9032,8629 9031,8630 9023,8641 9022,8642 9022,8643 9020,8645 9019,8647 9017,8649 9015,8651 9013,8654 9010,8657 9008,8659 9007,8660 9007,8661 9005,8663 9004,8665 9003,8666 9002,8667 9000,8669 8998,8672 8995,8675 8993,8677 8992,8678 8992,8679 8990,8681 8989,8683 8988,8684 8987,8685 8985,8687 8983,8690 8980,8692 8978,8695 8976,8697 8976,8698 8975,8699 8974,8700 8973,8701 8972,8702 8971,8703 8969,8705 8967,8708 8965,8711 8964,8712 8963,8713 8962,8714 8961,8715 8960,8716 8959,8717 8958,8718 8957,8719 8956,8720 8954,8723 8952,8725 8949,8728 8947,8730 8940,8737 8938,8740 8936,8742 8933,8745 8931,8747 8930,8748 8929,8749 8928,8750 8927,8751 8926,8752 8925,8753 8924,8754 8915,8763 8907,8771 8898,8780 8897,8781 8896,8782 8894,8784 8892,8785 8891,8786 8890,8787 8881,8796 8880,8797 8879,8798 8877,8800 8875,8801 8874,8802 8873,8803 8871,8805 8869,8807 8866,8809 8865,8810 8864,8811 8862,8813 8860,8815 8859,8816 8858,8817 8857,8818 8856,8819 8853,8821 8851,8824 8848,8826 8845,8828 8844,8829 8843,8830 8842,8831 8840,8833 8839,8833 8838,8834 8837,8835 8835,8836 8833,8839 8830,8842 8828,8843 8827,8844 8826,8845 8825,8846 8824,8847 8822,8849 8821,8849 8820,8850 8808,8859 8807,8860 8805,8862 8804,8863 8804,8863 8803,8864 8802,8864 8799,8867 8796,8869 8790,8874 8786,8877 8785,8877 8785,8878 8784,8878 8783,8879 8780,8881 8777,8884 8774,8887 8772,8888 8770,8889 8769,8889 8769,8890 8767,8891 8766,8892 8765,8893 8764,8893 8752,8902 8750,8904 8749,8905 8748,8906 8747,8907 8746,8907 8745,8908 8742,8910 8739,8912 8736,8914 8733,8916 8732,8917 8731,8917 8730,8918 8730,8919 8729,8920 8728,8920 8727,8921 8726,8921 8723,8923 8720,8926 8716,8928 8713,8930 8712,8931 8711,8931 8711,8932 8710,8933 8706,8935 8703,8937 8700,8940 8696,8942 8693,8944 8692,8944 8692,8945 8690,8946 8689,8947 8688,8948 8687,8948 8680,8953 8676,8955 8673,8957 8672,8957 8671,8958 8670,8959 8669,8960 8668,8960 8667,8961 8666,8961 8663,8963 8659,8966 8652,8970 8651,8971 8650,8971 8649,8972 8648,8972 8648,8973 8647,8973 8646,8974 8644,8975 8643,8976 8639,8978 8636,8980 8632,8982 8631,8982 8630,8983 8629,8984 8628,8985 8627,8985 8626,8986 8625,8986 8623,8987 8622,8988 8619,8990 8612,8994 8610,8995 8609,8996 8607,8997 8605,8998 8603,8999 8602,9000 8600,9001 8599,9002 8592,9005 8591,9006 8590,9006 8588,9008 8585,9009 8584,9009 8583,9010 8581,9012 8578,9013 8572,9016 8571,9017 8570,9017 8567,9019 8564,9020 8563,9021 8562,9021 8561,9022 8559,9023 8556,9025 8553,9026 8550,9028 8549,9028 8548,9029 8547,9029 8546,9030 8543,9032 8541,9033 8538,9035 8535,9036 8531,9038 8528,9039 8527,9039 8526,9040 8524,9041 8521,9042 8520,9043 8519,9043 8517,9044 8516,9045 8514,9046 8513,9047 8506,9050 8505,9050 8504,9051 8502,9052 8499,9053 8498,9054 8497,9054 8493,9056 8490,9057 8488,9058 8486,9059 8485,9060 8483,9061 8481,9062 8479,9063 8477,9063 8475,9064 8473,9065 8471,9066 8468,9068 8464,9069 8462,9070 8460,9071 8458,9072 8456,9073 8455,9073 8453,9074 8449,9076 8445,9077 8443,9078 8441,9079 8439,9080 8437,9081 8436,9081 8435,9082 8434,9082 8434,9082 8433,9083 8432,9083 8431,9083 8430,9083 8430,9083 8429,9084 8314,9126 8313,9126 8310,9127 8308,9128 8302,9130 8296,9132 8290,9134 8290,9134 8284,9136 8278,9138 8272,9139 8266,9141 8266,9141 8260,9143 8254,9145 8248,9146 8242,9148 8242,9148 8218,9154 8217,9155 8194,9161 8193,9161 8144,9172 8144,9172 8131,9175 8130,9175 8128,9176 8125,9176 8122,9176 8121,9177 8119,9177 8119,9177 8094,9182 8082,9184 8069,9186 8069,9186 8062,9187 8056,9188 8044,9190 8043,9190 8037,9191 8031,9192 8019,9194 8017,9194 7992,9197 7992,9197 7967,9200 7966,9200 7941,9203 7940,9203 7934,9204 7928,9204 7921,9204 7915,9205 7914,9205 7901,9206 7888,9207 7875,9208 7862,9208 7862,9208 7855,9209 7849,9209 7836,9209 7835,9209 7829,9210 7823,9210 7810,9210 7809,9210 7794,9210 7794,9210 7779,9210 7469,9502 7470,9502 7469,9503 7531,9502 Z"
   id="path65" />
         </g>
        </g>
       </g>
       <g
   class="com.sun.star.drawing.ClosedBezierShape"
   id="g86">
        <g
   id="id5">
         <rect
   class="BoundingBox"
   stroke="none"
   fill="none"
   x="7469"
   y="7884"
   width="2627"
   height="2217"
   id="rect72" />
         <g
   id="g83">
          <defs
   id="defs79">
           <linearGradient
   id="gradient2"
   x1="9920"
   y1="7728"
   x2="7643"
   y2="10257"
   gradientUnits="userSpaceOnUse">
            <stop
   offset="0.13"
   style="stop-color:rgb(0,153,195)"
   id="stop74" />
            <stop
   offset="1"
   style="stop-color:rgb(0,96,157)"
   id="stop76" />
           </linearGradient>
          </defs>
          <path
   style="fill:url(#gradient2)"
   d="M 7469,9503 L 7469,10100 7497,10100 7642,10095 7785,10083 7926,10064 8064,10039 8200,10007 8333,9970 8463,9926 8589,9876 8745,9805 8895,9724 9038,9636 9174,9539 9302,9434 9423,9323 9535,9204 9639,9079 9733,8947 9817,8810 9891,8667 9955,8519 10008,8367 10049,8210 10078,8049 10095,7885 9357,7885 9356,7891 9356,7897 9356,7904 9355,7910 9345,8007 9329,8102 9308,8195 9282,8285 9251,8373 9215,8459 9174,8542 9129,8622 9065,8720 8995,8814 8917,8903 8834,8986 8745,9064 8651,9136 8551,9203 8446,9264 8337,9318 8223,9365 8106,9406 7984,9440 7860,9467 7732,9487 7602,9499 7469,9503 Z"
   id="path81" />
         </g>
        </g>
       </g>
       <g
   class="com.sun.star.drawing.ClosedBezierShape"
   id="g102">
        <g
   id="id6">
         <rect
   class="BoundingBox"
   stroke="none"
   fill="none"
   x="6939"
   y="8477"
   width="1895"
   height="1625"
   id="rect88" />
         <g
   id="g99">
          <defs
   id="defs95">
           <linearGradient
   id="gradient3"
   x1="8730"
   y1="8382"
   x2="7039"
   y2="10195"
   gradientUnits="userSpaceOnUse">
            <stop
   offset="0.21"
   style="stop-color:rgb(29,127,55)"
   id="stop90" />
            <stop
   offset="1"
   style="stop-color:rgb(155,186,20)"
   id="stop92" />
           </linearGradient>
          </defs>
          <path
   style="fill:url(#gradient3)"
   d="M 8791,8477 L 8791,8477 8727,8478 8727,8478 8711,8478 8702,8478 8694,8479 8694,8479 8686,8480 8678,8480 8669,8480 8661,8481 8661,8481 8596,8486 8564,8490 8532,8494 8532,8494 8500,8498 8468,8503 8405,8514 8405,8514 8281,8542 8280,8543 8273,8545 8265,8547 8250,8551 8250,8551 8243,8553 8235,8555 8228,8557 8220,8559 8220,8559 8190,8568 8190,8569 8161,8578 8160,8578 8153,8580 8146,8583 8138,8586 8131,8588 8130,8588 8123,8591 8116,8593 8102,8598 8101,8599 8094,8601 8087,8604 8079,8607 8072,8609 8072,8610 8065,8612 8058,8615 8051,8618 8044,8621 8043,8621 8015,8633 8015,8633 8011,8635 8007,8636 8005,8637 8003,8638 8001,8639 7999,8640 7984,8646 7981,8648 7978,8649 7974,8651 7971,8652 7964,8655 7960,8657 7957,8658 7955,8659 7953,8660 7950,8662 7943,8665 7936,8668 7932,8670 7929,8671 7925,8673 7922,8675 7919,8676 7915,8678 7908,8682 7905,8683 7903,8684 7901,8685 7889,8691 7885,8693 7882,8695 7878,8697 7874,8699 7862,8705 7858,8707 7855,8709 7851,8711 7847,8713 7835,8719 7820,8728 7817,8730 7815,8731 7812,8733 7809,8734 7794,8743 7791,8745 7788,8746 7787,8747 7785,8748 7784,8749 7783,8750 7779,8752 7776,8754 7772,8756 7768,8758 7765,8760 7763,8762 7760,8763 7757,8765 7742,8774 7732,8781 7717,8790 7714,8792 7712,8794 7709,8795 7706,8797 7704,8798 7702,8799 7699,8802 7696,8805 7694,8806 7692,8807 7691,8808 7689,8809 7687,8811 7684,8812 7682,8813 7681,8814 7674,8819 7671,8822 7667,8824 7666,8825 7664,8826 7663,8827 7662,8828 7659,8829 7658,8830 7657,8831 7653,8833 7650,8836 7646,8839 7642,8841 7641,8842 7640,8843 7637,8845 7632,8849 7629,8851 7625,8854 7622,8856 7618,8859 7616,8861 7613,8863 7610,8865 7609,8866 7608,8867 7605,8869 7601,8872 7598,8874 7594,8877 7593,8878 7592,8879 7589,8881 7584,8885 7571,8895 7569,8897 7566,8899 7565,8900 7564,8901 7562,8902 7561,8903 7559,8904 7558,8906 7555,8909 7551,8911 7550,8913 7548,8914 7547,8915 7546,8916 7544,8918 7541,8920 7540,8921 7539,8922 7535,8925 7532,8928 7528,8930 7527,8932 7525,8933 7523,8935 7521,8937 7518,8939 7517,8940 7516,8941 7512,8944 7509,8947 7503,8953 7502,8954 7500,8955 7499,8956 7498,8957 7495,8959 7493,8961 7490,8964 7487,8967 7485,8968 7484,8970 7482,8971 7480,8972 7471,8981 7465,8987 7462,8990 7461,8991 7459,8992 7450,9001 7444,9007 7441,9010 7437,9013 7435,9015 7433,9017 7432,9018 7431,9019 7430,9020 7429,9021 7416,9034 7415,9035 7414,9036 7412,9038 7409,9040 7407,9042 7401,9048 7398,9051 7395,9055 7393,9057 7391,9059 7388,9061 7387,9062 7386,9063 7383,9067 7380,9070 7374,9076 7373,9077 7372,9078 7371,9081 7369,9083 7368,9084 7367,9085 7361,9091 7358,9094 7355,9098 7353,9100 7351,9103 7349,9105 7348,9106 7347,9107 7341,9113 7338,9116 7335,9120 7334,9121 7333,9122 7331,9125 7329,9127 7327,9129 7326,9131 7324,9132 7322,9136 7319,9139 7317,9140 7316,9142 7315,9143 7314,9144 7312,9147 7310,9149 7308,9152 7306,9155 7303,9158 7300,9161 7299,9163 7298,9165 7296,9167 7294,9170 7292,9172 7291,9173 7290,9174 7285,9181 7282,9184 7279,9187 7278,9188 7277,9190 7276,9191 7276,9192 7274,9195 7273,9196 7272,9197 7261,9211 7259,9213 7258,9216 7257,9217 7256,9218 7255,9219 7254,9220 7253,9222 7252,9224 7249,9227 7246,9230 7245,9232 7244,9234 7237,9244 7236,9246 7235,9248 7232,9251 7229,9254 7228,9256 7227,9258 7226,9259 7225,9260 7224,9263 7223,9264 7222,9265 7221,9267 7220,9268 7218,9271 7215,9275 7213,9278 7210,9282 7209,9284 7207,9287 7206,9288 7206,9290 7205,9291 7204,9293 7199,9300 7196,9303 7194,9307 7193,9309 7191,9312 7190,9315 7188,9317 7179,9332 7178,9333 7177,9334 7176,9336 7175,9337 7172,9342 7168,9349 7165,9353 7163,9356 7160,9362 7159,9365 7157,9367 7133,9409 7110,9451 7089,9495 7069,9538 7069,9539 7052,9579 7036,9619 7021,9660 7007,9702 7007,9703 7003,9717 6999,9731 6991,9758 6991,9759 6989,9766 6987,9773 6985,9780 6983,9787 6983,9787 6974,9823 6967,9859 6960,9895 6954,9932 6954,9932 6946,9991 6946,9991 6942,10035 6940,10057 6939,10079 6940,10079 6940,10081 6939,10084 6939,10088 6939,10093 6939,10098 6939,10098 6939,10100 6998,10068 6998,10065 6998,10062 6998,10060 6998,10058 6999,10057 6999,10055 6999,10049 6999,10049 7007,9976 7007,9975 7010,9952 7010,9951 7011,9946 7012,9940 7013,9934 7014,9928 7014,9927 7015,9922 7016,9916 7017,9910 7018,9904 7018,9903 7019,9897 7021,9892 7022,9886 7023,9880 7023,9879 7024,9874 7026,9868 7027,9862 7028,9857 7028,9856 7034,9833 7034,9833 7035,9827 7037,9822 7038,9816 7039,9810 7040,9809 7046,9788 7046,9786 7049,9775 7051,9769 7052,9767 7053,9764 7053,9764 7056,9753 7057,9750 7058,9748 7058,9746 7059,9745 7060,9742 7060,9741 7062,9736 7064,9730 7065,9725 7067,9719 7068,9719 7070,9713 7072,9708 7073,9702 7075,9697 7075,9697 7084,9675 7084,9674 7086,9669 7088,9664 7090,9658 7092,9653 7092,9653 7101,9631 7102,9631 7111,9610 7111,9609 7113,9604 7116,9599 7121,9589 7121,9588 7123,9583 7126,9578 7131,9568 7131,9567 7142,9547 7142,9546 7143,9543 7144,9541 7147,9536 7153,9526 7153,9525 7154,9523 7156,9520 7159,9516 7161,9511 7163,9508 7164,9506 7164,9505 7167,9501 7170,9496 7172,9492 7175,9487 7175,9486 7176,9485 7177,9483 7179,9480 7180,9477 7182,9475 7183,9473 7185,9471 7186,9469 7186,9468 7187,9467 7187,9466 7189,9463 7191,9461 7192,9458 7194,9455 7200,9446 7203,9441 7205,9439 7206,9436 7208,9434 7209,9432 7210,9430 7211,9429 7212,9428 7213,9427 7215,9425 7216,9422 7218,9419 7219,9417 7226,9407 7232,9398 7233,9397 7234,9396 7235,9395 7236,9393 7237,9392 7237,9391 7239,9388 7240,9387 7241,9386 7243,9383 7243,9382 7244,9381 7245,9379 7246,9378 7247,9377 7248,9376 7250,9374 7251,9372 7252,9371 7253,9370 7254,9369 7255,9367 7256,9366 7257,9365 7258,9362 7259,9361 7260,9360 7261,9359 7262,9358 7263,9357 7264,9356 7265,9353 7267,9351 7269,9349 7271,9346 7273,9343 7274,9342 7275,9341 7277,9339 7278,9337 7280,9335 7280,9334 7281,9333 7283,9330 7286,9328 7288,9325 7290,9322 7291,9321 7292,9320 7293,9319 7295,9317 7295,9316 7296,9315 7298,9312 7301,9310 7303,9307 7305,9304 7306,9303 7307,9302 7308,9301 7310,9299 7310,9298 7311,9297 7313,9294 7316,9292 7318,9289 7320,9286 7321,9285 7322,9284 7323,9282 7325,9280 7325,9279 7326,9278 7328,9276 7331,9273 7333,9271 7335,9268 7342,9261 7344,9259 7347,9256 7349,9253 7351,9251 7358,9244 7360,9242 7363,9239 7365,9236 7367,9234 7374,9227 7383,9218 7391,9210 7400,9201 7401,9200 7402,9199 7404,9198 7406,9196 7407,9195 7408,9194 7410,9192 7413,9190 7416,9187 7418,9185 7419,9184 7420,9183 7422,9182 7424,9180 7425,9179 7426,9178 7435,9169 7436,9168 7437,9167 7439,9166 7441,9164 7443,9162 7446,9160 7449,9158 7451,9155 7454,9153 7455,9152 7456,9152 7458,9150 7459,9149 7460,9148 7461,9147 7467,9142 7469,9139 7472,9137 7473,9136 7474,9136 7476,9134 7477,9133 7478,9132 7479,9131 7491,9122 7497,9116 7509,9107 7511,9106 7513,9104 7514,9103 7515,9102 7516,9102 7518,9101 7519,9099 7521,9098 7522,9097 7525,9094 7529,9092 7530,9091 7531,9091 7532,9090 7534,9088 7534,9088 7535,9087 7547,9078 7547,9078 7548,9077 7549,9077 7551,9076 7552,9074 7553,9074 7554,9073 7554,9073 7566,9064 7567,9064 7568,9063 7569,9063 7570,9062 7570,9061 7571,9060 7572,9060 7573,9059 7576,9057 7580,9055 7583,9052 7586,9050 7588,9049 7590,9048 7591,9047 7593,9046 7595,9045 7596,9043 7600,9041 7606,9036 7610,9034 7610,9034 7611,9033 7612,9033 7613,9032 7613,9032 7616,9030 7620,9028 7623,9025 7626,9023 7630,9021 7630,9021 7631,9020 7632,9020 7633,9019 7633,9019 7636,9017 7640,9015 7647,9010 7653,9007 7657,9005 7660,9003 7663,9000 7667,8998 7668,8998 7669,8997 7670,8996 7671,8995 7672,8995 7673,8994 7674,8994 7677,8992 7681,8990 7684,8988 7687,8986 7688,8986 7689,8985 7691,8984 7693,8983 7694,8982 7695,8982 7697,8981 7698,8980 7701,8979 7704,8977 7706,8976 7707,8975 7708,8974 7709,8974 7712,8973 7714,8971 7715,8971 7716,8970 7728,8964 7730,8963 7733,8961 7734,8960 7735,8960 7736,8959 7737,8959 7749,8953 7754,8950 7756,8949 7759,8947 7771,8941 7772,8941 7773,8940 7776,8939 7778,8938 7779,8937 7780,8937 7782,8936 7784,8935 7787,8934 7790,8932 7792,8931 7794,8930 7795,8930 7796,8929 7798,8928 7800,8927 7801,8926 7802,8926 7806,8924 7810,8923 7813,8921 7815,8920 7817,8919 7818,8919 7819,8918 7821,8918 7822,8917 7823,8916 7824,8916 7826,8915 7828,8914 7832,8913 7835,8911 7837,8910 7839,8909 7841,8908 7843,8908 7845,8907 7847,8906 7851,8904 7855,8903 7858,8901 7860,8900 7862,8899 7864,8898 7866,8898 7867,8897 7869,8896 7871,8896 7927,8874 7956,8864 7984,8854 7985,8853 7991,8851 7997,8850 8003,8848 8009,8846 8009,8846 8020,8843 8026,8841 8032,8839 8033,8839 8039,8837 8045,8835 8056,8832 8057,8832 8063,8830 8069,8829 8075,8827 8081,8825 8081,8825 8105,8819 8106,8819 8130,8813 8142,8810 8155,8808 8155,8808 8168,8805 8180,8802 8180,8802 8230,8793 8230,8793 8237,8792 8243,8791 8249,8790 8255,8789 8256,8789 8280,8786 8282,8785 8307,8782 8307,8782 8332,8779 8333,8779 8346,8778 8352,8777 8358,8777 8360,8776 8366,8776 8373,8775 8385,8774 8386,8774 8438,8771 8438,8771 8445,8771 8451,8771 8457,8770 8464,8770 8465,8770 8471,8770 8478,8770 8484,8769 8490,8769 8491,8769 8506,8769 8506,8769 8521,8769 8832,8477 8816,8477 8816,8477 8791,8477 Z"
   id="path97" />
         </g>
        </g>
       </g>
       <g
   class="com.sun.star.drawing.ClosedBezierShape"
   id="g118">
        <g
   id="id7">
         <rect
   class="BoundingBox"
   stroke="none"
   fill="none"
   x="6200"
   y="7880"
   width="2633"
   height="2221"
   id="rect104" />
         <g
   id="g115">
          <defs
   id="defs111">
           <linearGradient
   id="gradient4"
   x1="6374"
   y1="10258"
   x2="8658"
   y2="7722"
   gradientUnits="userSpaceOnUse">
            <stop
   offset="0.13"
   style="stop-color:rgb(29,127,55)"
   id="stop106" />
            <stop
   offset="1"
   style="stop-color:rgb(155,186,20)"
   id="stop108" />
           </linearGradient>
          </defs>
          <path
   style="fill:url(#gradient4)"
   d="M 8832,8478 L 8832,7880 8803,7880 8658,7885 8515,7897 8374,7916 8235,7941 8099,7973 7965,8011 7835,8054 7709,8104 7553,8175 7403,8256 7259,8345 7123,8442 6994,8546 6873,8658 6761,8777 6657,8903 6563,9035 6478,9172 6404,9315 6340,9464 6287,9617 6246,9774 6217,9935 6200,10100 6939,10100 6940,10093 6940,10087 6940,10081 6941,10074 6951,9977 6967,9882 6988,9789 7014,9698 7046,9610 7082,9524 7122,9441 7168,9361 7232,9262 7303,9169 7380,9080 7463,8996 7552,8918 7647,8845 7747,8779 7852,8718 7962,8664 8076,8616 8194,8575 8315,8541 8440,8514 8568,8494 8699,8482 8832,8478 Z"
   id="path113" />
         </g>
        </g>
       </g>
      </g>
     </g>
    </g>
   </g>
  </g>
 </g>
</svg>
